<?xml version="1.0" encoding="UTF-8" standalone="no"?>
<svg
   
   
   
   
   xmlns="http://www.w3.org/2000/svg"
   
   
   width="150mm"
   height="30mm"
   viewBox="0 0 150 30"
   version="1.1"
   id="svg8"
   
   >
  <defs
     id="defs2" />
  
  <metadata
     id="metadata5">
    
  </metadata>
  <g
     
     
     id="layer1">
    <path
       style="fill:#000000;fill-opacity:1;stroke:#000000;stroke-width:0.0254699"
       d=""
       id="path851"
       transform="scale(0.26458333)" />
    <path
       style="fill:#000000;fill-opacity:1;stroke:#000000;stroke-width:0.0254699"
       d=""
       id="path853"
       transform="scale(0.26458333)" />
    <path
       style="fill:#000000;fill-opacity:1;stroke:#000000;stroke-width:0.0254699"
       d=""
       id="path859"
       transform="scale(0.26458333)" />
    <path
       style="fill:#000000;fill-opacity:1;stroke:#000000;stroke-width:0.0083319"
       d=""
       id="path867"
       transform="scale(0.26458333)" />
    <path
       style="fill:#000000;fill-opacity:1;stroke:#000000;stroke-width:0.0083319"
       d=""
       id="path871"
       transform="scale(0.26458333)" />
    <path
       style="fill:#000000;fill-opacity:1;stroke:#000000;stroke-width:0.0083319"
       d=""
       id="path873"
       transform="scale(0.26458333)" />
    <path
       style="fill:#000000;fill-opacity:1;stroke:#000000;stroke-width:0.0083319"
       d=""
       id="path885"
       transform="scale(0.26458333)" />
    <path
       style="fill:#000000;fill-opacity:1;stroke:#000000;stroke-width:0.00083319;stroke-miterlimit:4;stroke-dasharray:none"
       d=""
       id="path893"
       transform="scale(0.26458333)" />
    <path
       style="fill:#000000;fill-opacity:1;stroke:#000000;stroke-width:0.00083319;stroke-miterlimit:4;stroke-dasharray:none"
       d=""
       id="path897"
       transform="scale(0.26458333)" />
    <path
       style="fill:#000000;fill-opacity:1;stroke:#000000;stroke-width:0.00083319;stroke-miterlimit:4;stroke-dasharray:none"
       d=""
       id="path899"
       transform="scale(0.26458333)" />
    <path
       style="fill:#000000;fill-opacity:1;stroke:#000000;stroke-width:0.000497641;stroke-miterlimit:4;stroke-dasharray:none"
       d=""
       id="path931"
       transform="scale(0.26458333)" />
    <path
       style="fill:#000000;fill-opacity:1;stroke:#000000;stroke-width:0.000497641;stroke-miterlimit:4;stroke-dasharray:none"
       d=""
       id="path933"
       transform="scale(0.26458333)" />
    <path
       style="fill:#000000;fill-opacity:1;stroke:#000000;stroke-width:0.000497641;stroke-miterlimit:4;stroke-dasharray:none"
       d=""
       id="path935"
       transform="scale(0.26458333)" />
    <path
       style="fill:#000000;fill-opacity:1;stroke:#000000;stroke-width:0.000497641;stroke-miterlimit:4;stroke-dasharray:none"
       d=""
       id="path939"
       transform="scale(0.26458333)" />
    <path
       style="fill:#000000;fill-opacity:1;stroke:#000000;stroke-width:0.000497641;stroke-miterlimit:4;stroke-dasharray:none"
       d=""
       id="path941"
       transform="scale(0.26458333)" />
    <path
       style="fill:#000000;fill-opacity:1;stroke:#000000;stroke-width:0.000200374;stroke-miterlimit:4;stroke-dasharray:none"
       d=""
       id="path945"
       transform="scale(0.26458333)" />
    <path
       style="fill:#000000;fill-opacity:1;stroke:#000000;stroke-width:0.000200374;stroke-miterlimit:4;stroke-dasharray:none"
       d=""
       id="path951"
       transform="scale(0.26458333)" />
    <path
       style="fill:#000000;fill-opacity:1;stroke:#000000;stroke-width:0.000200374;stroke-miterlimit:4;stroke-dasharray:none"
       d=""
       id="path961"
       transform="scale(0.26458333)" />
    <path
       style="fill:#000000;fill-opacity:1;stroke:#000000;stroke-width:0.000200374;stroke-miterlimit:4;stroke-dasharray:none"
       d=""
       id="path969"
       transform="scale(0.26458333)" />
    <path
       style="fill:#000000;fill-opacity:1;stroke:#000000;stroke-width:0.000200374;stroke-miterlimit:4;stroke-dasharray:none"
       d=""
       id="path981"
       transform="scale(0.26458333)" />
    <path
       style="fill:#000000;fill-opacity:1;stroke:#000000;stroke-width:0.000147638;stroke-miterlimit:4;stroke-dasharray:none"
       d=""
       id="path1011"
       transform="scale(0.26458333)" />
    <path
       style="fill:#000000;fill-opacity:1;stroke:#000000;stroke-width:0.000147638;stroke-miterlimit:4;stroke-dasharray:none"
       d=""
       id="path1015"
       transform="scale(0.26458333)" />
    <path
       style="fill:#000000;fill-opacity:1;stroke:#000000;stroke-width:0.000147638;stroke-miterlimit:4;stroke-dasharray:none"
       d=""
       id="path1017"
       transform="scale(0.26458333)" />
    <path
       style="fill:#000000;fill-opacity:1;stroke:#000000;stroke-width:0.000147638;stroke-miterlimit:4;stroke-dasharray:none"
       d=""
       id="path1019"
       transform="scale(0.26458333)" />
    <path
       style="fill:#000000;fill-opacity:1;stroke:#000000;stroke-width:0.000147638;stroke-miterlimit:4;stroke-dasharray:none"
       d=""
       id="path1023"
       transform="scale(0.26458333)" />
    <path
       style="fill:#000000;fill-opacity:1;stroke:#000000;stroke-width:0.000147638;stroke-miterlimit:4;stroke-dasharray:none"
       d=""
       id="path1025"
       transform="scale(0.26458333)" />
    <path
       style="fill:#000000;fill-opacity:1;stroke:#000000;stroke-width:0.000147638;stroke-miterlimit:4;stroke-dasharray:none"
       d=""
       id="path1027"
       transform="scale(0.26458333)" />
    <path
       style="fill:#000000;fill-opacity:1;stroke:#000000;stroke-width:0.000147638;stroke-miterlimit:4;stroke-dasharray:none;stroke-opacity:1"
       d=""
       id="path1043"
       transform="scale(0.26458333)" />
    <path
       style="fill:#000000;fill-opacity:1;stroke:#000000;stroke-width:0.000147638;stroke-miterlimit:4;stroke-dasharray:none;stroke-opacity:1"
       d=""
       id="path1049"
       transform="scale(0.26458333)" />
    <path
       style="fill:#000000;fill-opacity:1;stroke:#000000;stroke-width:0.000147638;stroke-miterlimit:4;stroke-dasharray:none;stroke-opacity:1"
       d=""
       id="path1051"
       transform="scale(0.26458333)" />
    <path
       style="fill:#000000;fill-opacity:1;stroke:#000000;stroke-width:0.000147638;stroke-miterlimit:4;stroke-dasharray:none;stroke-opacity:1"
       d=""
       id="path1053"
       transform="scale(0.26458333)" />
    <path
       id="path974"
       style="font-style:normal;font-variant:normal;font-weight:normal;font-stretch:normal;font-size:25.4px;line-height:1.25;font-family:'Hiragino Kaku Gothic StdN';font-variant-ligatures:normal;font-variant-caps:normal;font-variant-numeric:normal;font-variant-east-asian:normal;fill:#000000;fill-opacity:1;stroke-width:0.264583"
       d="m 2.0683009,2.4983945 c 0.1524,1.2192 0.2030889,2.311458 0.2030889,3.657658 V 20.049776 c 0,1.778 -0.050689,2.641423 -0.2030889,3.733623 1.0922,-0.0508 1.8285433,-0.07597 3.7589433,-0.07597 H 7.2488637 V 2.5743585 H 5.8019236 c -2.0828,0 -2.4382227,2.36e-4 -3.7336227,-0.07596 z" />
    <path
       d="m 33.154652,7.0702075 h 2.8702 c 1.8288,0 2.8194,0.0508 3.9624,0.1778 v -4.8514 c -1.1684,0.127 -2.1844,0.1778 -3.9624,0.1778 h -11.1252 c -1.5494,0 -2.9464,-0.0762 -3.7846,-0.1778 v 4.8514 c 1.8034,-0.1524 2.2352,-0.1778 3.8354,-0.1778 h 2.9972 V 19.871808 c 0,1.6002 -0.0508,2.6416 -0.2032,3.8354 h 5.6134 c -0.1524,-1.1938 -0.2032,-2.3114 -0.2032,-3.8354 z"
       style="font-style:normal;font-variant:normal;font-weight:normal;font-stretch:normal;font-size:25.4px;line-height:1.25;font-family:'Hiragino Kaku Gothic Std';font-variant-ligatures:normal;font-variant-caps:normal;font-variant-numeric:normal;font-variant-east-asian:normal;stroke-width:0.264583"
       id="path976" />
    <path
       d="m 44.052838,22.335608 -0.5334,1.0922 c -0.381,0.762 -1.0922,1.1938 -2.0574,1.1938 -0.6604,0 -1.143,-0.127 -1.9812,-0.5588 l -0.5588,4.0386 c 1.397,0.3048 2.3622,0.4318 3.4798,0.4318 2.8956,0 4.7244,-1.0922 5.7404,-3.4798 l 5.8166,-13.4366 c 0.889,-2.0828005 0.889,-2.0828005 1.524,-3.4036005 h -5.5118 c -0.1524,0.889 -0.381,1.6256 -1.0922,3.3782005 l -2.2606,5.7658 -2.3368,-5.8674 c -0.5334,-1.3716 -0.8636,-2.4638005 -0.9906,-3.2766005 h -5.5118 c 0.3302,0.635 0.4318,0.8636 1.524,3.4036005 z"
       style="font-style:normal;font-variant:normal;font-weight:normal;font-stretch:normal;font-size:25.4px;line-height:1.25;font-family:'Hiragino Kaku Gothic Std';font-variant-ligatures:normal;font-variant-caps:normal;font-variant-numeric:normal;font-variant-east-asian:normal;stroke-width:0.264583"
       id="path978" />
    <path
       d="m 62.212252,28.304608 c -0.1524,-1.0922 -0.2032,-2.2606 -0.2032,-3.683 v -1.7526 c -0.0254,-0.3556 -0.0254,-0.6858 -0.0254,-0.9144 0.7112,0.6096 1.0922,0.889 1.7526,1.1684 0.9398,0.4064 2.2352,0.6604 3.429,0.6604 2.0828,0 3.937,-0.7112 5.2324,-2.0066 1.4478,-1.4478 2.2098,-3.556 2.2098,-6.1468 0,-2.5654 -0.6858,-4.572 -2.032,-5.9182005 -1.3208,-1.2954 -3.1496,-1.9558 -5.3848,-1.9558 -2.1082,0 -3.683,0.5334 -5.207,1.8034 0,-0.127 0.0254,-0.3302 0.0254,-0.4826 v -0.8636 h -5.003799 c 0.1524,1.2954 0.2032,2.3368005 0.2032,3.9878005 v 12.3952 c 0,1.3462 -0.0762,2.6162 -0.2032,3.7084 z m 3.8354,-8.3566 c -2.286,0 -3.9878,-1.8034 -3.9878,-4.191 0,-2.3114 1.7272,-4.1656 3.8354,-4.1656 2.3876,0 3.7592,1.4986 3.7592,4.0894 0,1.4478 -0.4064,2.6162 -1.1176,3.302 -0.6604,0.635 -1.524,0.9652 -2.4892,0.9652 z"
       style="font-style:normal;font-variant:normal;font-weight:normal;font-stretch:normal;font-size:25.4px;line-height:1.25;font-family:'Hiragino Kaku Gothic Std';font-variant-ligatures:normal;font-variant-caps:normal;font-variant-numeric:normal;font-variant-east-asian:normal;stroke-width:0.264583"
       id="path980" />
    <path
       d="m 92.093762,17.382608 c -0.0254,-0.254 -0.0254,-0.4064 -0.0254,-0.508 -0.0762,-1.4478 -0.1778,-2.5146 -0.381,-3.3274 -0.889,-3.7846005 -3.6576,-5.9436005 -7.62,-5.9436005 -4.8514,0 -8.0772,3.3274005 -8.0772,8.3566005 0,2.5146 0.8128,4.6736 2.3114,6.1976 1.4478,1.4478 3.4036,2.159 5.8928,2.159 2.5146,0 4.5466,-0.7366 5.9944,-2.159 0.7112,-0.7112 1.0922,-1.2954 1.6764,-2.6162 l -4.4196,-1.2446 c -0.2032,0.6604 -0.381,0.9398 -0.762,1.2954 -0.6604,0.6096 -1.5494,0.9398 -2.5654,0.9398 -2.0066,0 -3.2004,-1.0922 -3.4544,-3.1496 z m -11.3538,-3.5052 c 0.4318,-1.6764 1.524,-2.4892 3.3274,-2.4892 1.7526,0 2.8448,0.8636 3.2004,2.4892 z"
       style="font-style:normal;font-variant:normal;font-weight:normal;font-stretch:normal;font-size:25.4px;line-height:1.25;font-family:'Hiragino Kaku Gothic Std';font-variant-ligatures:normal;font-variant-caps:normal;font-variant-numeric:normal;font-variant-east-asian:normal;stroke-width:0.264583"
       id="path982" />
    <path
       d="m 106.76226,8.2132075 c -1.1938,-0.254 -1.7018,-0.3048 -2.5146,-0.3048 -2.3114,0 -3.8354,0.6858 -5.079998,2.3114005 V 8.2132075 h -5.0546 c 0.1524,1.0922 0.2032,1.9812005 0.2032,3.8354005 v 7.8232 c 0,1.651 -0.0508,2.5654 -0.2032,3.8354 h 5.2578 c -0.1524,-1.2192 -0.2032,-2.1844 -0.2032,-3.81 v -3.9624 c 0.1016,-1.1176 0.2794,-1.651 0.761999,-2.2606 0.736599,-0.9144 1.727199,-1.3716 3.022599,-1.3716 0.7874,0 1.4224,0.127 2.5908,0.4826 z"
       style="font-style:normal;font-variant:normal;font-weight:normal;font-stretch:normal;font-size:25.4px;line-height:1.25;font-family:'Hiragino Kaku Gothic Std';font-variant-ligatures:normal;font-variant-caps:normal;font-variant-numeric:normal;font-variant-east-asian:normal;stroke-width:0.264583"
       id="path984" />
    <path
       d="m 108.75854,20.075008 c 0,1.7526 -0.0508,2.5908 -0.2032,3.7084 1.0668,-0.0508 1.778,-0.0762 3.7338,-0.0762 h 5.3594 c 3.0226,0 5.4356,-0.8636 7.1374,-2.54 1.9304,-1.9304 2.9464,-4.7244 2.9464,-8.2042 0,-3.3782005 -0.9398,-6.0452005 -2.794,-7.8740005 -1.7018,-1.651 -4.2164,-2.5146 -7.3406,-2.5146 h -5.3086 c -2.1082,0 -2.7432,-0.0254 -3.7592,-0.0762 0.1778,1.1684 0.2286,2.0066 0.2286,3.7338 z m 5.0292,-0.8128 V 7.0194075 h 3.3274 c 1.8288,0 3.048,0.4064 3.937,1.2954 0.9906,0.9906 1.4732,2.5654005 1.4732,4.7244005 0,2.1082 -0.5588,3.81 -1.6002,4.8768 -0.9144,0.9144 -2.0828,1.3462 -3.7338,1.3462 z"
       style="font-style:normal;font-variant:normal;font-weight:normal;font-stretch:normal;font-size:25.4px;line-height:1.25;font-family:'Hiragino Kaku Gothic StdN';font-variant-ligatures:normal;font-variant-caps:normal;font-variant-numeric:normal;font-variant-east-asian:normal;fill:#0096ff;fill-opacity:1;stroke-width:0.264583"
       id="path986" />
    <path
       d="m 140.92685,23.707208 c 4.4196,0 7.0104,-2.159 7.0104,-5.8166 0,-1.6764 -0.5588,-3.048 -1.651,-4.0132 -0.7366,-0.635 -1.397,-0.9398 -2.6416,-1.2192 1.0414,-0.381 1.4986,-0.635 2.0574,-1.1176 0.9652,-0.8636 1.4732,-2.0828005 1.4732,-3.6322005 0,-3.3528 -2.413,-5.334 -6.5278,-5.334 h -6.6548 c -2.0828,0 -2.4384,0 -3.7338,-0.0762 0.1524,1.2192 0.2032,2.3114 0.2032,3.6576 V 20.049608 c 0,1.778 -0.0508,2.6416 -0.2032,3.7338 1.0922,-0.0508 1.8288,-0.0762 3.7592,-0.0762 z m -5.4864,-12.9794 V 6.7400075 h 4.4196 c 1.4478,0 2.2352,0.7112 2.2352,1.9558 0,1.2446 -0.8382,2.0320005 -2.1844,2.0320005 z m 0,4.064 h 4.6482 c 1.6256,0 2.5908,0.8636 2.5908,2.3368 0,1.4986 -0.9652,2.3876 -2.5654,2.3876 h -4.6736 z"
       style="font-style:normal;font-variant:normal;font-weight:normal;font-stretch:normal;font-size:25.4px;line-height:1.25;font-family:'Hiragino Kaku Gothic StdN';font-variant-ligatures:normal;font-variant-caps:normal;font-variant-numeric:normal;font-variant-east-asian:normal;fill:#0096ff;fill-opacity:1;stroke-width:0.264583"
       id="path988" />
    <path
       id="path1033"
       style="font-style:normal;font-variant:normal;font-weight:normal;font-stretch:normal;font-size:25.4px;line-height:1.25;font-family:'Hiragino Kaku Gothic StdN';font-variant-ligatures:normal;font-variant-caps:normal;font-variant-numeric:normal;font-variant-east-asian:normal;fill:#0096ff;fill-opacity:1;stroke-width:0.264583"
       d="M 7.2488629,2.5743575 V 23.707438 h 5.4875201 c 4.4196,0 7.010426,-2.1591 7.010426,-5.8167 0,-1.6764 -0.558864,-3.04799 -1.651064,-4.01319 -0.7366,-0.635 -1.397097,-0.94017 -2.641697,-1.21957 1.0414,-0.381 1.498438,-0.63464 2.057238,-1.11724 0.9652,-0.8636 1.473295,-2.0829405 1.473295,-3.6323405 0,-3.3528 -2.412968,-5.33404 -6.527768,-5.33404 z m 0.001,4.16564 h 4.4193701 c 1.4478,0 2.235523,0.71135 2.235523,1.95595 0,1.2446 -0.838163,2.0319205 -2.184363,2.0319205 H 7.2498629 Z m 0,8.0517005 h 4.6482961 c 1.625599,0 2.59054,0.86361 2.59054,2.33681 0,1.4986 -0.965017,2.38745 -2.565217,2.38745 H 7.2498949 Z" />
  </g>
</svg>
